<?xml version="1.0" encoding="utf-8"?>
<!-- Generator: Adobe Illustrator 21.0.2, SVG Export Plug-In . SVG Version: 6.00 Build 0)  -->
<svg version="1.1" id="Layer_1" xmlns="http://www.w3.org/2000/svg" xmlns:xlink="http://www.w3.org/1999/xlink" x="0px" y="0px"
	 viewBox="0 0 1024 1024" style="enable-background:new 0 0 1024 1024;" xml:space="preserve">
<style type="text/css">
	.st0{fill:#F70F26;}
	.st1{fill:#FFFFFF;}
</style>
<g>
	<rect class="st0" width="1024" height="1024"/>
	<g>
		<path class="st1" d="M311.1,282.7c109.8,0,171.3,45.6,171.3,127.1c0,58.7-25.6,96.7-78,116c-31.8,12.4-73.2,16.6-151.3,16.6v198.9
			h-66.3V354.5c0-46.3-13.8-59.4-63.5-60.8v-11.1H311.1z M253.1,514.8h6.2c62.2,0,80.1-1.4,103.6-11.7
			c33.2-15.2,50.4-46.3,50.4-90.5c0-69.1-41.4-102.2-126.4-102.2c-31.1,0-33.8,2.8-33.8,38.7V514.8z"/>
		<path class="st1" d="M721,741.3h-27.3L540.9,361.9c-20.5-50.5-36.9-66.2-73.7-68.2v-10.9h109.2l147.4,363.1L863,282.7h32.8
			L721,741.3z"/>
	</g>
</g>
</svg>
