<?xml version="1.0" encoding="utf-8"?>
<!-- Generator: Adobe Illustrator 21.0.2, SVG Export Plug-In . SVG Version: 6.00 Build 0)  -->
<svg version="1.1" id="Layer_1" xmlns="http://www.w3.org/2000/svg" xmlns:xlink="http://www.w3.org/1999/xlink" x="0px" y="0px"
	 viewBox="0 0 1000 1000" style="enable-background:new 0 0 1000 1000;" xml:space="preserve">
<g>
	<path d="M246.9,206.7c139.8,0,218,58,218,161.7c0,74.7-32.5,123.1-99.3,147.7c-40.4,15.8-93.2,21.1-192.5,21.1v253.1H88.7V298.1
		c0-58.9-17.6-75.6-80.9-77.3v-14.1H246.9z M173.1,502h7.9c79.1,0,102-1.8,131.8-14.9C355,467.7,377,428.2,377,371.9
		c0-87.9-52.7-130.1-160.9-130.1c-39.6,0-43.1,3.5-43.1,49.2V502z"/>
	<path d="M768.7,790.3h-34.7L539.4,307.4c-26.1-64.3-46.9-84.2-93.8-86.9v-13.9h139l187.6,462l177.2-462H991L768.7,790.3z"/>
</g>
</svg>
