<svg xmlns="http://www.w3.org/2000/svg" width="75" height="75" viewBox="0 0 75 75" class="style-svg absolute w3 h-auto left-0 top-0 replaced-svg svg-replaced-2"><title>icon-exit-red</title><g fill="#f70f26"><path d="M0 75V0h75L0 75z"/><g fill="#fff"><path d="M11.35 33.93l4.28-4.28 1.16 1.16-2.79 2.8 1.54 1.54 2.24-2.24L18.85 34l-2.24 2.24 1.64 1.64 3-3 1.16 1.16-4.43 4.43zM22.65 29l-5.13-1.27 1.68-1.68 3.44.94-.95-3.43 1.53-1.53 1.28 5 5.5 1.41-1.7 1.69-3.87-1 1 3.86-1.5 1.51zM25.21 20.08l1.5-1.5 6.57 6.57-1.5 1.5zM31.39 16.21L29.61 18l-1.16-1.16 5-5L34.61 13l-1.77 1.77 5.41 5.42-1.5 1.5z"/></g></g></svg>