<svg xmlns="http://www.w3.org/2000/svg" width="92" height="92" viewBox="0 0 92 92">
  <title>icon-featured</title>
  <g>
    <polygon points="0 0 92 0 92 92 0 0" style="fill: #3e96f1"/>
    <g>
      <path d="M38.41,10.91l3.25,3.25-.55.55-2.58-2.57-2,2,2,2-.55.55-2-2-2.49,2.49-.68-.68Z" style="fill: #fff"/>
      <path d="M43.4,15.9l3.24,3.24-.55.55-2.57-2.57L41.63,19l2.07,2.07-.55.55-2.07-2.07-2,2,2.71,2.71-.55.55-3.38-3.38Z" style="fill: #fff"/>
      <path d="M50.23,22.72l.89.89-3.68,7.45-.67-.67,1.06-2.15-2.29-2.29L43.39,27l-.64-.64Zm-4,2.87,1.93,1.93,1.9-3.83Z" style="fill: #fff"/>
      <path d="M54.75,28.35l-1.62-1.62.55-.55,3.91,3.91-.55.55L55.42,29l-5,5-.68-.68Z" style="fill: #fff"/>
      <path d="M55.74,35.3l3.53-3.53.68.68L56.49,35.9c-1.17,1.17-1.21,2-.28,3s1.77,1.06,3.14-.3L62.7,35.2l.68.68-3.45,3.45c-1.35,1.35-2.86,1.51-4.29.08C54.36,38.12,54.38,36.65,55.74,35.3Z" style="fill: #fff"/>
      <path d="M65.58,38.08l1.67,1.67c1.07,1.07,1.51,2.38.4,3.49l0,0a2.11,2.11,0,0,1-2.89.14L64,47.58l-.75-.75L64,42.75l-.86-.86-2.42,2.42L60,43.64Zm-.89,4.33c.79.79,1.56.88,2.25.19l0,0c.75-.75.54-1.47-.22-2.22l-1-1-2.06,2.06Z" style="fill: #fff"/>
      <path d="M71.25,43.75,74.5,47l-.55.55L71.38,45l-1.89,1.89,2.07,2.07-.55.55-2.07-2.07-2,2,2.71,2.71-.55.55-3.38-3.38Z" style="fill: #fff"/>
      <path d="M76.38,48.88l1.47,1.47a3.61,3.61,0,0,1,.08,5.55l-.07.07a3.64,3.64,0,0,1-5.59-.07l-1.46-1.46Zm-3.57,6.45a2.8,2.8,0,0,0,4.36-.07l.06-.06a2.75,2.75,0,0,0,0-4.34l-.75-.76L72,54.56Z" style="fill: #fff"/>
    </g>
  </g>
</svg>
