<svg xmlns="http://www.w3.org/2000/svg" width="31.25" height="26.1" viewBox="0 0 31.25 26.1">
  <title>icon-checkmark</title>
  <g>
    <path d="M12.8,25.63a.5.5,0,0,1,.47-.53h0a.5.5,0,0,1,.53.47h0a.5.5,0,0,1-.47.53h0A.51.51,0,0,1,12.8,25.63Zm-2.62.27a.5.5,0,0,1-.4-.58h0a.5.5,0,0,1,.58-.4h0a.5.5,0,0,1,.4.58h0a.5.5,0,0,1-.49.41h-.09Zm5.63-.72a.49.49,0,0,1,.31-.63h0a.49.49,0,0,1,.63.32h0a.48.48,0,0,1-.31.62h0l-.16,0h0A.49.49,0,0,1,15.81,25.18Zm-8.64-.25a.5.5,0,0,1-.24-.67h0A.5.5,0,0,1,7.59,24h0a.5.5,0,0,1,.24.67h0a.49.49,0,0,1-.45.29h0A.53.53,0,0,1,7.17,24.93ZM18.6,24a.5.5,0,0,1,.16-.69h0a.5.5,0,0,1,.69.16h0a.5.5,0,0,1-.16.69h0a.49.49,0,0,1-.26.07h0A.51.51,0,0,1,18.6,24ZM4.5,23.24a.5.5,0,0,1-.07-.71h0a.49.49,0,0,1,.7-.06h0a.49.49,0,0,1,.07.7h0a.49.49,0,0,1-.38.18h0A.46.46,0,0,1,4.5,23.24ZM21,22.16a.49.49,0,0,1,0-.7h0a.5.5,0,0,1,.71,0h0a.5.5,0,0,1,0,.71h0a.52.52,0,0,1-.37.16h0A.51.51,0,0,1,21,22.16ZM2.33,20.94a.51.51,0,0,1,.11-.7h0a.51.51,0,0,1,.7.11h0A.51.51,0,0,1,3,21H3a.52.52,0,0,1-.3.09h0A.51.51,0,0,1,2.33,20.94Zm20.58-1.16a.5.5,0,0,1-.2-.68h0a.51.51,0,0,1,.68-.2h0a.51.51,0,0,1,.2.68h0a.51.51,0,0,1-.44.26h0A.5.5,0,0,1,22.91,19.78ZM.8,18.17h0a.51.51,0,0,1,.28-.65h0a.51.51,0,0,1,.65.28h0a.5.5,0,0,1-.28.65h0a.39.39,0,0,1-.18,0h0A.51.51,0,0,1,.8,18.17ZM24.13,17a.5.5,0,0,1-.36-.61h0a.49.49,0,0,1,.61-.35h0a.49.49,0,0,1,.36.6h0a.5.5,0,0,1-.49.38h0ZM0,15.11a.51.51,0,0,1,.44-.56h0A.51.51,0,0,1,1,15H1a.51.51,0,0,1-.44.56H.51A.51.51,0,0,1,0,15.11Zm24.13-1.6v0h0v0h0a.5.5,0,0,1,.5-.5h0a.49.49,0,0,1,.5.5h0v0h0v0h0a.5.5,0,0,1-.5.5h0A.51.51,0,0,1,24.13,13.51Zm-23.7-1A.49.49,0,0,1,0,11.95H0a.49.49,0,0,1,.55-.43h0a.5.5,0,0,1,.44.56H1a.5.5,0,0,1-.5.43H.44Zm23.33-1.94h0a.5.5,0,0,1,.35-.61h0a.51.51,0,0,1,.62.36h0a.51.51,0,0,1-.36.61h0l-.13,0h0A.5.5,0,0,1,23.77,10.57Zm-22.7-1a.5.5,0,0,1-.28-.65h0a.5.5,0,0,1,.65-.28h0a.49.49,0,0,1,.28.65h0a.48.48,0,0,1-.46.32h0A.58.58,0,0,1,1.07,9.54ZM22.69,7.87h0a.5.5,0,0,1,.19-.68h0a.51.51,0,0,1,.68.2h0a.51.51,0,0,1-.19.68h0a.54.54,0,0,1-.25.06h0A.48.48,0,0,1,22.69,7.87ZM2.42,6.81a.49.49,0,0,1-.12-.69h0A.5.5,0,0,1,3,6H3a.51.51,0,0,1,.11.7h0a.49.49,0,0,1-.4.21h0A.44.44,0,0,1,2.42,6.81ZM21,5.53a.5.5,0,0,1,0-.71h0a.49.49,0,0,1,.7,0h0a.5.5,0,0,1,0,.71h0a.48.48,0,0,1-.34.13h0A.49.49,0,0,1,21,5.53ZM4.4,4.51a.49.49,0,0,1,.06-.7h0a.51.51,0,0,1,.71.06h0a.52.52,0,0,1-.07.71h0a.54.54,0,0,1-.32.11h0A.49.49,0,0,1,4.4,4.51Zm14.32-.83A.49.49,0,0,1,18.56,3h0a.49.49,0,0,1,.69-.16h0a.51.51,0,0,1,.16.69h0a.51.51,0,0,1-.43.23h0A.48.48,0,0,1,18.72,3.68ZM6.88,2.77a.5.5,0,0,1,.23-.67h0a.51.51,0,0,1,.67.24h0A.5.5,0,0,1,7.55,3h0a.53.53,0,0,1-.21,0h0A.49.49,0,0,1,6.88,2.77Zm9.19-.32a.5.5,0,0,1-.32-.63h0a.5.5,0,0,1,.63-.33h0a.51.51,0,0,1,.32.63h0a.5.5,0,0,1-.48.35h0ZM9.73,1.71a.5.5,0,0,1,.4-.59h0a.49.49,0,0,1,.58.4h0a.49.49,0,0,1-.39.58h-.1A.51.51,0,0,1,9.73,1.71Zm3.49.2a.5.5,0,0,1-.47-.53h0a.51.51,0,0,1,.53-.47h0a.52.52,0,0,1,.47.53h0a.5.5,0,0,1-.5.47h0Z" style="fill: #f70f26"/>
    <polyline points="30.9 0.35 14.02 17.24 7.17 10.39" style="fill: none;stroke: #35353a;stroke-miterlimit: 10"/>
  </g>
</svg>
