<svg xmlns="http://www.w3.org/2000/svg" width="75" height="75" viewBox="0 0 75 75">
  <title>icon-exit-new</title>
  <g>
    <polygon points="0 75 0 0 75 0 0 75"/>
    <g>
      <path d="M11.35,33.93l4.28-4.28,1.16,1.16L14,33.61l1.54,1.54,2.24-2.24L18.85,34l-2.24,2.24,1.64,1.64,3-3,1.16,1.16-4.43,4.43Z" style="fill: #fff"/>
      <path d="M22.65,29l-5.13-1.27,1.68-1.68,3.44.94-.95-3.43,1.53-1.53,1.28,5L30,28.44,28.3,30.13l-3.87-1,1,3.86L23.93,34.5Z" style="fill: #fff"/>
      <path d="M25.21,20.08l1.5-1.5,6.57,6.57-1.5,1.5Z" style="fill: #fff"/>
      <path d="M31.39,16.21,29.61,18l-1.16-1.16,5-5,1.16,1.16-1.77,1.77,5.41,5.42-1.5,1.5Z" style="fill: #fff"/>
    </g>
  </g>
</svg>
