<svg xmlns="http://www.w3.org/2000/svg" width="23.64" height="19.2" viewBox="0 0 23.64 19.2">
  <title>social-share-twitter</title>
  <path d="M7.44,19.2A13.69,13.69,0,0,0,21.22,5.41V4.79a9.86,9.86,0,0,0,2.42-2.51,9.68,9.68,0,0,1-2.8.76A4.87,4.87,0,0,0,23,.33a9.72,9.72,0,0,1-3.08,1.2,4.85,4.85,0,0,0-8.26,4.42A13.77,13.77,0,0,1,1.64.89a4.85,4.85,0,0,0,1.5,6.47,4.81,4.81,0,0,1-2.2-.59v.06a4.85,4.85,0,0,0,3.89,4.74,4.84,4.84,0,0,1-2.19.08A4.85,4.85,0,0,0,7.18,15a9.73,9.73,0,0,1-6,2.08A9.87,9.87,0,0,1,0,17a13.72,13.72,0,0,0,7.44,2.17" style="fill: #fff"/>
</svg>
