<svg xmlns="http://www.w3.org/2000/svg" width="74.12" height="44" viewBox="0 0 74.12 44">
  <title>logo-plazaventures-icon</title>
  <g>
    <path d="M18,0C28.56,0,34.46,4.37,34.46,12.19c0,5.63-2.45,9.28-7.49,11.13-3,1.19-7,1.59-14.51,1.59V44H6.1V6.89c0-4.44-1.33-5.7-6.1-5.83V0ZM12.46,22.27h.6c6,0,7.69-.13,9.94-1.13,3.18-1.46,4.84-4.44,4.84-8.68,0-6.63-4-9.81-12.13-9.81-3,0-3.25.27-3.25,3.71Z" style="fill: #f70f26"/>
    <path d="M57.36,44H54.74L40.07,7.6C38.11,2.75,36.54,1.24,33,1V0H43.48L57.62,34.83,71,0h3.14Z" style="fill: #f70f26"/>
  </g>
</svg>
